{
	"asset":{
		"generator":"Khronos glTF Blender I/O v4.1.62",
		"version":"2.0"
	},
	"scene":0,
	"scenes":[
		{
			"name":"Scene",
			"nodes":[
				42
			]
		}
	],
	"nodes":[
		{
			"name":"leg_front_left_toe_end",
			"rotation":[
				7.450646322126886e-09,
				-2.895250190704246e-07,
				-3.129243850708008e-07,
				1
			],
			"translation":[
				-3.0696537578478456e-07,
				3,
				2.176578618673375e-06
			]
		},
		{
			"children":[
				0
			],
			"name":"leg_front_left_toe",
			"rotation":[
				-0.7320351600646973,
				-0.09989362955093384,
				-0.09989394247531891,
				0.6664586067199707
			],
			"scale":[
				1,
				0.9999999403953552,
				1
			],
			"translation":[
				-1.9073486328125e-06,
				7.632829666137695,
				-4.76837158203125e-07
			]
		},
		{
			"children":[
				1
			],
			"name":"leg_front_left_ankle",
			"rotation":[
				0.3506581783294678,
				0.019819846376776695,
				0.04916549474000931,
				0.9350020289421082
			],
			"scale":[
				0.9999999403953552,
				0.9999998807907104,
				0.9999998807907104
			],
			"translation":[
				7.152557373046875e-07,
				6.316843509674072,
				-4.76837158203125e-07
			]
		},
		{
			"children":[
				2
			],
			"name":"leg_front_left_bot0",
			"rotation":[
				8.684868646469113e-08,
				-0.9436687231063843,
				-0.3103502094745636,
				0.1147693544626236
			],
			"scale":[
				1,
				0.9999995231628418,
				1
			],
			"translation":[
				-9.644786587159615e-07,
				19.2600154876709,
				4.028452167403884e-07
			]
		},
		{
			"children":[
				3
			],
			"name":"leg_front_left_top1",
			"rotation":[
				3.3867042503743505e-08,
				0.16761527955532074,
				-0.444455087184906,
				0.8799800276756287
			],
			"scale":[
				1,
				0.9999999403953552,
				0.9999999403953552
			],
			"translation":[
				1.1920928955078125e-07,
				12.923277854919434,
				-5.364418029785156e-07
			]
		},
		{
			"children":[
				4
			],
			"name":"leg_front_left_top0",
			"rotation":[
				-0.4164726138114929,
				-0.5725724697113037,
				-0.6682257652282715,
				0.22844214737415314
			],
			"scale":[
				0.9999999403953552,
				0.9999999403953552,
				0.9999998807907104
			],
			"translation":[
				0.3911115527153015,
				7.164638519287109,
				1.275650978088379
			]
		},
		{
			"name":"leg_front_right_toe_end",
			"rotation":[
				3.241002559661865e-07,
				3.789319293900917e-07,
				3.1292424296225363e-07,
				1
			],
			"scale":[
				1,
				0.9999999403953552,
				1
			],
			"translation":[
				4.0235408960143104e-07,
				2.99999737739563,
				1.1402880772948265e-06
			]
		},
		{
			"children":[
				6
			],
			"name":"leg_front_right_toe",
			"rotation":[
				-0.7320355176925659,
				0.09989447146654129,
				0.09989500045776367,
				0.6664579510688782
			],
			"scale":[
				0.9999999403953552,
				0.9999998807907104,
				0.9999997019767761
			],
			"translation":[
				-1.7881393432617188e-07,
				7.63282585144043,
				7.152557373046875e-07
			]
		},
		{
			"children":[
				7
			],
			"name":"leg_front_right_ankle",
			"rotation":[
				0.3506583571434021,
				-0.019820593297481537,
				-0.04916597902774811,
				0.9350019097328186
			],
			"scale":[
				1,
				1.0000001192092896,
				1
			],
			"translation":[
				-2.384185791015625e-07,
				6.3168439865112305,
				-9.5367431640625e-07
			]
		},
		{
			"children":[
				8
			],
			"name":"leg_front_right_bot0",
			"rotation":[
				1.4408986714897765e-07,
				0.9436686635017395,
				0.3103502094745636,
				0.11476980894804001
			],
			"scale":[
				1,
				1.000000238418579,
				1.0000001192092896
			],
			"translation":[
				1.385814130117069e-07,
				19.260009765625,
				8.349798008566722e-07
			]
		},
		{
			"children":[
				9
			],
			"name":"leg_front_right_top1",
			"rotation":[
				5.5033943624493986e-08,
				-0.16761532425880432,
				0.444455087184906,
				0.8799800276756287
			],
			"scale":[
				1,
				1.0000001192092896,
				0.9999999403953552
			],
			"translation":[
				-3.5762786865234375e-07,
				12.923276901245117,
				-6.556510925292969e-07
			]
		},
		{
			"children":[
				10
			],
			"name":"leg_front_right_top0",
			"rotation":[
				-0.4164726138114929,
				0.5725724101066589,
				0.6682257652282715,
				0.22844210267066956
			],
			"scale":[
				1,
				1,
				0.9999999403953552
			],
			"translation":[
				-0.3911115527153015,
				7.164638996124268,
				1.2756519317626953
			]
		},
		{
			"name":"head0_end",
			"rotation":[
				6.705501931492108e-08,
				1.2018063877405893e-08,
				5.5933928599927185e-09,
				1
			],
			"scale":[
				1,
				0.9999999403953552,
				0.9999999403953552
			],
			"translation":[
				4.656612873077393e-10,
				17.636829376220703,
				1.4822196590102976e-06
			]
		},
		{
			"children":[
				12
			],
			"name":"head0",
			"rotation":[
				0.4903067946434021,
				-0.12350453436374664,
				-0.06679041683673859,
				0.8601656556129456
			],
			"scale":[
				0.9999999403953552,
				1,
				1
			],
			"translation":[
				-1.0493477020645514e-06,
				3.8096067905426025,
				2.7734172363125253e-06
			]
		},
		{
			"children":[
				13
			],
			"name":"neck1",
			"rotation":[
				0.0331379696726799,
				0.09420152008533478,
				0.16031719744205475,
				0.9820011854171753
			],
			"scale":[
				0.9999999403953552,
				0.9999998807907104,
				0.9999999403953552
			],
			"translation":[
				2.384185791015625e-07,
				11.289681434631348,
				-1.2218952178955078e-06
			]
		},
		{
			"children":[
				14
			],
			"name":"neck0",
			"rotation":[
				-0.18417319655418396,
				-0.02996929921209812,
				-0.03497592359781265,
				0.9818140268325806
			],
			"scale":[
				1,
				1,
				0.9999998807907104
			],
			"translation":[
				-9.974659986866641e-18,
				7.437884330749512,
				-2.0265579223632812e-06
			]
		},
		{
			"children":[
				5,
				11,
				15
			],
			"name":"body_top1",
			"rotation":[
				-0.059342727065086365,
				4.581170512385491e-13,
				2.1703054934804622e-13,
				0.998237669467926
			],
			"translation":[
				9.486508800726767e-11,
				7.404566287994385,
				3.3266842365264893e-06
			]
		},
		{
			"children":[
				16
			],
			"name":"body_top0",
			"rotation":[
				-0.07012885808944702,
				-1.214167605212424e-05,
				-1.2575767868838739e-05,
				0.9975379705429077
			],
			"scale":[
				1,
				0.9999999403953552,
				0.9999998807907104
			],
			"translation":[
				-7.275957614183426e-12,
				6.936006546020508,
				-4.231929779052734e-06
			]
		},
		{
			"name":"tail5_end",
			"rotation":[
				-5.159382254760203e-08,
				-4.423782673512733e-09,
				1.0477379852602553e-08,
				1
			],
			"scale":[
				1,
				0.9999998807907104,
				0.9999999403953552
			],
			"translation":[
				-1.1920928955078125e-07,
				4.545597553253174,
				-2.0298175513744354e-06
			]
		},
		{
			"children":[
				18
			],
			"name":"tail5",
			"rotation":[
				0.0185638889670372,
				-0.009702636860311031,
				0.03683455288410187,
				0.9991018772125244
			],
			"scale":[
				0.9999998807907104,
				1.0000001192092896,
				1
			],
			"translation":[
				-2.60770320892334e-07,
				0.2713107764720917,
				1.612649066373706e-05
			]
		},
		{
			"children":[
				19
			],
			"name":"tail4",
			"rotation":[
				4.0461745811626315e-06,
				1.0873191058635712e-07,
				-1.5494879335165024e-07,
				1
			],
			"translation":[
				2.421438694000244e-07,
				0.2820400893688202,
				-1.2929667718708515e-06
			]
		},
		{
			"children":[
				20
			],
			"name":"tail3",
			"rotation":[
				-4.546323452814249e-06,
				-6.763730198144913e-08,
				-2.5494953703741885e-08,
				1
			],
			"scale":[
				1,
				1.0000001192092896,
				1.0000001192092896
			],
			"translation":[
				2.4586915969848633e-07,
				0.27022644877433777,
				-3.1595700420439243e-06
			]
		},
		{
			"children":[
				21
			],
			"name":"tail2",
			"rotation":[
				-5.664256605086848e-06,
				-1.2223608791828156e-07,
				1.287553317297352e-07,
				1
			],
			"scale":[
				1.0000001192092896,
				1.0000001192092896,
				1
			],
			"translation":[
				8.195638656616211e-08,
				0.26344433426856995,
				-4.098808858543634e-06
			]
		},
		{
			"children":[
				22
			],
			"name":"tail1",
			"rotation":[
				1.0587205906631425e-05,
				3.080349415540695e-07,
				2.468004822731018e-08,
				1
			],
			"translation":[
				3.725290298461914e-08,
				0.5944634675979614,
				1.3496610336005688e-06
			]
		},
		{
			"children":[
				23
			],
			"name":"tail0",
			"rotation":[
				0.372805118560791,
				0.0117072444409132,
				-0.021197548136115074,
				0.9275936484336853
			],
			"scale":[
				0.9999998807907104,
				1,
				1
			],
			"translation":[
				-3.725290298461914e-08,
				10.187766075134277,
				1.7404090613126755e-07
			]
		},
		{
			"children":[
				24
			],
			"name":"pelvis",
			"rotation":[
				0.1053987368941307,
				-0.008173240348696709,
				0.009201426059007645,
				0.9943538904190063
			],
			"scale":[
				0.9999999403953552,
				0.9999999403953552,
				0.9999998807907104
			],
			"translation":[
				7.450580596923828e-09,
				11.574743270874023,
				-4.18741547036916e-06
			]
		},
		{
			"name":"leg_hind_right_toe_end",
			"rotation":[
				5.897591748293962e-09,
				-6.223297077667667e-08,
				2.980242186367832e-08,
				1
			],
			"translation":[
				-4.043113221996464e-08,
				3.0000007152557373,
				8.797906048130244e-07
			]
		},
		{
			"children":[
				26
			],
			"name":"leg_hind_right_toe",
			"rotation":[
				-0.6385400295257568,
				-0.27849575877189636,
				-0.27850574254989624,
				0.6611666679382324
			],
			"scale":[
				0.9999998807907104,
				0.9999999403953552,
				0.9999998807907104
			],
			"translation":[
				-1.4007091522216797e-06,
				11.905659675598145,
				1.6093254089355469e-06
			]
		},
		{
			"children":[
				27
			],
			"name":"leg_hind_right_ankle",
			"rotation":[
				-0.3672138750553131,
				0.21483385562896729,
				-0.15363314747810364,
				0.891850471496582
			],
			"translation":[
				-7.152557373046875e-07,
				7.086812973022461,
				2.384185791015625e-07
			]
		},
		{
			"children":[
				28
			],
			"name":"leg_hind_right_bot0",
			"rotation":[
				1.0396619245511829e-06,
				-0.9101263284683228,
				0.383726567029953,
				0.15628178417682648
			],
			"scale":[
				1,
				0.9999998807907104,
				1
			],
			"translation":[
				-1.1957017704844475e-06,
				14.959465026855469,
				-1.3363128346099984e-06
			]
		},
		{
			"children":[
				29
			],
			"name":"leg_hind_right_top1",
			"rotation":[
				-2.1553535134444246e-06,
				0.14259296655654907,
				0.4433470368385315,
				0.8849354386329651
			],
			"scale":[
				1,
				1,
				0.9999999403953552
			],
			"translation":[
				2.384185791015625e-07,
				12.945201873779297,
				-1.3709068298339844e-06
			]
		},
		{
			"children":[
				30
			],
			"name":"leg_hind_right_top0",
			"rotation":[
				0.4071595370769501,
				-0.6045413613319397,
				0.6472024321556091,
				0.2233382612466812
			],
			"scale":[
				0.9999998807907104,
				1,
				0.9999999403953552
			],
			"translation":[
				-0.3861744999885559,
				11.424860000610352,
				-1.2981513738632202
			]
		},
		{
			"name":"leg_hind_left_toe_end",
			"rotation":[
				3.1759529406372167e-07,
				1.0921251032414148e-06,
				8.145909760060022e-07,
				1
			],
			"translation":[
				5.460533429868519e-07,
				3.000002145767212,
				2.156075424863957e-06
			]
		},
		{
			"children":[
				32
			],
			"name":"leg_hind_left_toe",
			"rotation":[
				-0.6385405659675598,
				0.27849337458610535,
				0.2785050868988037,
				0.6611673831939697
			],
			"scale":[
				1,
				0.9999999403953552,
				0.9999998807907104
			],
			"translation":[
				-1.8775463104248047e-06,
				11.905669212341309,
				-6.556510925292969e-07
			]
		},
		{
			"children":[
				33
			],
			"name":"leg_hind_left_ankle",
			"rotation":[
				-0.36721426248550415,
				-0.21483030915260315,
				0.15363368391990662,
				0.8918510675430298
			],
			"scale":[
				1,
				1,
				0.9999998807907104
			],
			"translation":[
				0,
				7.086815357208252,
				2.384185791015625e-07
			]
		},
		{
			"children":[
				34
			],
			"name":"leg_hind_left_bot0",
			"rotation":[
				1.0642218484235855e-07,
				0.9101255536079407,
				-0.38372737169265747,
				0.15628425776958466
			],
			"scale":[
				1,
				1.000000238418579,
				1
			],
			"translation":[
				-1.4106831258686725e-07,
				14.959466934204102,
				-6.497032245533774e-09
			]
		},
		{
			"children":[
				35
			],
			"name":"leg_hind_left_top1",
			"rotation":[
				-2.6035420432890533e-06,
				-0.144079327583313,
				-0.441336989402771,
				0.8856990337371826
			],
			"scale":[
				0.9999999403953552,
				1,
				1
			],
			"translation":[
				7.152557373046875e-07,
				12.866883277893066,
				-1.8477439880371094e-06
			]
		},
		{
			"children":[
				36
			],
			"name":"leg_hind_left_top0",
			"rotation":[
				0.4068678915500641,
				0.605950117111206,
				-0.6450258493423462,
				0.22632889449596405
			],
			"scale":[
				0.9999998807907104,
				0.9999997019767761,
				0.9999998807907104
			],
			"translation":[
				0.3970344662666321,
				11.427911758422852,
				-1.296593427658081
			]
		},
		{
			"children":[
				25,
				31,
				37
			],
			"name":"body_bot",
			"rotation":[
				0.9997956156730652,
				0.0022868497762829065,
				0.002079527359455824,
				0.01998128741979599
			],
			"scale":[
				1,
				1,
				1.0000005960464478
			],
			"translation":[
				-0.0023864773102104664,
				0.9966666102409363,
				-0.061346352100372314
			]
		},
		{
			"children":[
				17,
				38
			],
			"name":"body",
			"rotation":[
				0.743319571018219,
				8.62608526275288e-11,
				1.7480568203609437e-05,
				0.6689364910125732
			],
			"scale":[
				1,
				0.9999998807907104,
				0.9999998807907104
			],
			"translation":[
				0.0001622099953237921,
				41.395660400390625,
				-13.748038291931152
			]
		},
		{
			"children":[
				39
			],
			"name":"root",
			"rotation":[
				-0.7071031928062439,
				0,
				0,
				0.7071103453636169
			],
			"translation":[
				0,
				0,
				28.187110900878906
			]
		},
		{
			"mesh":0,
			"name":"bulldog_puppy",
			"skin":0
		},
		{
			"children":[
				41,
				40
			],
			"name":"rig",
			"rotation":[
				0.7071068286895752,
				0,
				0,
				0.7071068286895752
			]
		}
	],
	"materials":[
		{
			"doubleSided":true,
			"name":"Eyes.001",
			"pbrMetallicRoughness":{
				"baseColorTexture":{
					"index":0
				},
				"metallicFactor":0,
				"roughnessFactor":0.11756859719753265
			}
		},
		{
			"doubleSided":true,
			"name":"Body.001",
			"normalTexture":{
				"index":1
			},
			"pbrMetallicRoughness":{
				"baseColorTexture":{
					"index":2
				},
				"metallicFactor":0,
				"roughnessFactor":0.6000000238418579
			}
		}
	],
	"meshes":[
		{
			"name":"bulldog_puppy",
			"primitives":[
				{
					"attributes":{
						"POSITION":0,
						"NORMAL":1,
						"TEXCOORD_0":2,
						"JOINTS_0":3,
						"WEIGHTS_0":4
					},
					"indices":5,
					"material":0
				},
				{
					"attributes":{
						"POSITION":6,
						"NORMAL":7,
						"TEXCOORD_0":8,
						"JOINTS_0":9,
						"WEIGHTS_0":10
					},
					"indices":11,
					"material":1
				}
			]
		}
	],
	"textures":[
		{
			"sampler":0,
			"source":0
		},
		{
			"sampler":0,
			"source":1
		},
		{
			"sampler":0,
			"source":0
		}
	],
	"images":[
		{
			"mimeType":"image/png",
			"name":"Image_0",
			"uri":"Image_0.png"
		},
		{
			"mimeType":"image/png",
			"name":"Image_1",
			"uri":"Image_1.png"
		}
	],
	"skins":[
		{
			"inverseBindMatrices":12,
			"joints":[
				40,
				39,
				17,
				16,
				5,
				4,
				3,
				2,
				1,
				0,
				11,
				10,
				9,
				8,
				7,
				6,
				15,
				14,
				13,
				12,
				38,
				25,
				24,
				23,
				22,
				21,
				20,
				19,
				18,
				31,
				30,
				29,
				28,
				27,
				26,
				37,
				36,
				35,
				34,
				33,
				32
			],
			"name":"rig"
		}
	],
	"accessors":[
		{
			"bufferView":0,
			"componentType":5126,
			"count":1092,
			"max":[
				7.768433570861816,
				19.12618637084961,
				31.960142135620117
			],
			"min":[
				-7.757345199584961,
				14.936687469482422,
				27.774545669555664
			],
			"type":"VEC3"
		},
		{
			"bufferView":1,
			"componentType":5126,
			"count":1092,
			"type":"VEC3"
		},
		{
			"bufferView":2,
			"componentType":5126,
			"count":1092,
			"type":"VEC2"
		},
		{
			"bufferView":3,
			"componentType":5121,
			"count":1092,
			"type":"VEC4"
		},
		{
			"bufferView":4,
			"componentType":5126,
			"count":1092,
			"type":"VEC4"
		},
		{
			"bufferView":5,
			"componentType":5123,
			"count":5760,
			"type":"SCALAR"
		},
		{
			"bufferView":6,
			"componentType":5126,
			"count":10596,
			"max":[
				15.489707946777344,
				28.187118530273438,
				38.28257369995117
			],
			"min":[
				-15.489706039428711,
				-28.187110900878906,
				-38.2825813293457
			],
			"type":"VEC3"
		},
		{
			"bufferView":7,
			"componentType":5126,
			"count":10596,
			"type":"VEC3"
		},
		{
			"bufferView":8,
			"componentType":5126,
			"count":10596,
			"type":"VEC2"
		},
		{
			"bufferView":9,
			"componentType":5121,
			"count":10596,
			"type":"VEC4"
		},
		{
			"bufferView":10,
			"componentType":5126,
			"count":10596,
			"type":"VEC4"
		},
		{
			"bufferView":11,
			"componentType":5123,
			"count":59058,
			"type":"SCALAR"
		},
		{
			"bufferView":12,
			"componentType":5126,
			"count":41,
			"type":"MAT4"
		}
	],
	"bufferViews":[
		{
			"buffer":0,
			"byteLength":13104,
			"byteOffset":0,
			"target":34962
		},
		{
			"buffer":0,
			"byteLength":13104,
			"byteOffset":13104,
			"target":34962
		},
		{
			"buffer":0,
			"byteLength":8736,
			"byteOffset":26208,
			"target":34962
		},
		{
			"buffer":0,
			"byteLength":4368,
			"byteOffset":34944,
			"target":34962
		},
		{
			"buffer":0,
			"byteLength":17472,
			"byteOffset":39312,
			"target":34962
		},
		{
			"buffer":0,
			"byteLength":11520,
			"byteOffset":56784,
			"target":34963
		},
		{
			"buffer":0,
			"byteLength":127152,
			"byteOffset":68304,
			"target":34962
		},
		{
			"buffer":0,
			"byteLength":127152,
			"byteOffset":195456,
			"target":34962
		},
		{
			"buffer":0,
			"byteLength":84768,
			"byteOffset":322608,
			"target":34962
		},
		{
			"buffer":0,
			"byteLength":42384,
			"byteOffset":407376,
			"target":34962
		},
		{
			"buffer":0,
			"byteLength":169536,
			"byteOffset":449760,
			"target":34962
		},
		{
			"buffer":0,
			"byteLength":118116,
			"byteOffset":619296,
			"target":34963
		},
		{
			"buffer":0,
			"byteLength":2624,
			"byteOffset":737412
		}
	],
	"samplers":[
		{
			"magFilter":9729,
			"minFilter":9987
		}
	],
	"buffers":[
		{
			"byteLength":740036,
			"uri":"bulldog_puppy.bin"
		}
	]
}
